<svg width="200" height="200" viewBox="0 0 200 200" fill="none" xmlns="http://www.w3.org/2000/svg">
    <g clip-path="url(#clip0_1096_7120)">
        <circle cx="100" cy="100" r="100" fill="#EFF2F3" />
        <path
            d="M37.9747 67.0886C37.9747 55.9031 47.0424 46.8354 58.2279 46.8354H141.772C152.958 46.8354 162.025 55.9031 162.025 67.0886V200H37.9747V67.0886Z"
            fill="#001B3D" />
        <path
            d="M45.5697 67.0887C45.5697 60.0978 51.237 54.4305 58.2279 54.4305H141.772C148.763 54.4305 154.431 60.0978 154.431 67.0887V200H45.5697V67.0887Z"
            fill="white" />
        <path
            d="M80.8154 112.027C80.8153 112.027 80.8153 112.027 80.8152 112.027L77.7218 108.836L80.932 107.953V111.952C80.9316 111.974 80.9255 111.994 80.9157 112.01C80.9058 112.026 80.8935 112.036 80.8821 112.042L80.9612 112.211L80.8821 112.042C80.871 112.047 80.8598 112.048 80.8494 112.046C80.8388 112.044 80.8267 112.038 80.8154 112.027Z"
            fill="#FFF9E1" stroke="#FF9500" stroke-width="0.373787" />
        <path
            d="M71.3393 95.9354H84.5833C85.243 95.9354 85.7485 96.4204 85.7485 96.9841V107.587C85.7485 108.15 85.243 108.635 84.5833 108.635H71.3393C70.6795 108.635 70.174 108.15 70.174 107.587V96.9841C70.174 96.4204 70.6795 95.9354 71.3393 95.9354Z"
            fill="#FFF9E1" stroke="#FF9500" stroke-width="0.373787" />
        <path
            d="M70.2792 100.098C71.9503 100.098 73.305 98.6177 73.305 96.7911C73.305 94.9645 71.9503 93.4838 70.2792 93.4838C68.6081 93.4838 67.2534 94.9645 67.2534 96.7911C67.2534 98.6177 68.6081 100.098 70.2792 100.098Z"
            fill="#C62828" />
        <path
            d="M80.6694 101.7L80.221 101.614C80.1683 101.4 80.0904 101.194 79.9894 101.001L80.2509 100.593C80.2974 100.521 80.3189 100.433 80.3117 100.344C80.3045 100.256 80.2691 100.174 80.2117 100.111L79.9445 99.8296C79.8864 99.768 79.8103 99.7309 79.7295 99.7249C79.6488 99.7189 79.5687 99.7444 79.5036 99.7969L79.1299 100.081C78.954 99.9704 78.7656 99.8859 78.5694 99.8296L78.491 99.3294C78.4778 99.243 78.4373 99.1644 78.3765 99.1073C78.3158 99.0502 78.2386 99.0182 78.1584 99.017H77.7735C77.6922 99.0167 77.6134 99.0479 77.5511 99.1051C77.4889 99.1623 77.4472 99.2418 77.4335 99.3294L77.355 99.8091C77.1589 99.8657 76.9705 99.9501 76.7945 100.06L76.4209 99.7887C76.3547 99.7377 76.2742 99.7138 76.1936 99.7213C76.1129 99.7288 76.0373 99.7671 75.9799 99.8296L75.7128 100.124C75.6557 100.186 75.6205 100.269 75.6133 100.357C75.6061 100.445 75.6274 100.533 75.6735 100.605L75.9351 101.014C75.8337 101.206 75.7558 101.412 75.7034 101.626L75.2569 101.712C75.1769 101.727 75.1044 101.773 75.0521 101.841C74.9998 101.909 74.9711 101.995 74.971 102.083V102.492C74.9711 102.58 74.9998 102.666 75.0521 102.734C75.1044 102.802 75.1769 102.848 75.2569 102.863L75.7034 102.949C75.7556 103.163 75.8335 103.369 75.9351 103.561L75.6735 103.97C75.6274 104.042 75.6061 104.13 75.6133 104.218C75.6205 104.306 75.6557 104.389 75.7128 104.452L75.9799 104.744C76.037 104.806 76.1126 104.845 76.1932 104.853C76.2739 104.861 76.3545 104.837 76.4209 104.786L76.7945 104.501C76.9705 104.611 77.1589 104.696 77.355 104.754L77.4335 105.242C77.4479 105.329 77.4898 105.408 77.5519 105.465C77.614 105.522 77.6924 105.553 77.7735 105.554H78.1584C78.2396 105.554 78.3182 105.523 78.3804 105.465C78.4426 105.408 78.4844 105.329 78.4984 105.242L78.5769 104.754C78.7731 104.696 78.9615 104.611 79.1374 104.501L79.5017 104.78C79.5682 104.831 79.6487 104.854 79.7293 104.846C79.8099 104.838 79.8854 104.8 79.9427 104.737L80.2098 104.445C80.2672 104.383 80.3027 104.3 80.3099 104.212C80.317 104.124 80.2955 104.036 80.2491 103.964L79.9875 103.555C80.0889 103.363 80.1668 103.157 80.2192 102.943L80.6676 102.857C80.7476 102.842 80.82 102.796 80.8721 102.728C80.9241 102.66 80.9523 102.574 80.9515 102.486V102.077C80.9533 101.988 80.9259 101.901 80.8742 101.832C80.8225 101.762 80.7499 101.716 80.6694 101.7ZM77.966 103.396C77.7629 103.396 77.5644 103.331 77.3954 103.208C77.2264 103.085 77.0947 102.91 77.0168 102.705C76.939 102.5 76.9185 102.275 76.958 102.057C76.9975 101.84 77.0952 101.64 77.2388 101.483C77.3824 101.326 77.5653 101.219 77.7644 101.176C77.9636 101.133 78.17 101.155 78.3575 101.24C78.545 101.325 78.7052 101.469 78.8177 101.654C78.9303 101.839 78.9902 102.055 78.9898 102.277C78.9898 102.424 78.9633 102.57 78.9119 102.705C78.8604 102.841 78.785 102.965 78.6899 103.068C78.5949 103.172 78.482 103.255 78.3578 103.311C78.2336 103.367 78.1004 103.396 77.966 103.396Z"
            fill="#100C25" />
        <path
            d="M87.2998 149.319V149.319V112.603H132.365V149.319C132.365 149.768 132.185 150.2 131.861 150.519C131.538 150.839 131.098 151.019 130.638 151.019H89.0248C88.7975 151.019 88.5725 150.975 88.3628 150.889C88.1531 150.803 87.9628 150.677 87.8028 150.519C87.6428 150.361 87.5162 150.174 87.43 149.968C87.3438 149.762 87.2996 149.542 87.2998 149.319Z"
            fill="#EDFCFF" stroke="#1FB767" stroke-width="0.747574" />
        <path
            d="M130.638 100.468H89.0248C88.7491 100.468 88.476 100.522 88.2212 100.626C87.9665 100.73 87.735 100.883 87.5401 101.076C87.3452 101.268 87.1906 101.497 87.0853 101.749C86.9799 102 86.9258 102.27 86.926 102.542V112.23H132.747V102.542C132.747 102.269 132.692 101.999 132.586 101.747C132.48 101.495 132.325 101.266 132.129 101.073C131.933 100.88 131.7 100.728 131.445 100.624C131.189 100.52 130.915 100.467 130.638 100.468Z"
            fill="#069550" />
        <path
            d="M99.6534 109.015C100.985 109.015 102.064 107.95 102.064 106.635C102.064 105.32 100.985 104.255 99.6534 104.255C98.3218 104.255 97.2424 105.32 97.2424 106.635C97.2424 107.95 98.3218 109.015 99.6534 109.015Z"
            fill="#100C25" />
        <path
            d="M99.1451 105.36C98.9805 105.36 98.8175 105.328 98.6653 105.266C98.5132 105.204 98.3749 105.113 98.2585 104.998C98.142 104.884 98.0496 104.747 97.9865 104.597C97.9235 104.447 97.891 104.286 97.891 104.124V98.9569C97.8851 98.6643 97.9818 98.3787 98.1647 98.1483C98.3476 97.918 98.6054 97.7571 98.8947 97.6929C99.0769 97.6566 99.265 97.6607 99.4454 97.7049C99.6259 97.749 99.7941 97.8322 99.9381 97.9483C100.082 98.0645 100.198 98.2107 100.278 98.3766C100.358 98.5424 100.399 98.7236 100.399 98.9071V100.477H102.52V99.0252C102.52 97.2519 101.167 95.7038 99.375 95.582C98.9137 95.5512 98.4509 95.6142 98.0153 95.7671C97.5796 95.92 97.1804 96.1595 96.8423 96.4708C96.5042 96.7821 96.2344 97.1587 96.0496 97.5771C95.8648 97.9955 95.7689 98.4469 95.7679 98.9034V104.007C95.7679 105.746 97.0762 107.273 98.8236 107.434C99.0102 107.45 99.1978 107.45 99.3843 107.434C100.721 107.343 100.61 105.345 99.2703 105.345L99.1451 105.36Z"
            fill="#EDFCFF" />
        <path
            d="M118.879 109.015C120.211 109.015 121.29 107.95 121.29 106.635C121.29 105.32 120.211 104.255 118.879 104.255C117.548 104.255 116.468 105.32 116.468 106.635C116.468 107.95 117.548 109.015 118.879 109.015Z"
            fill="#100C25" />
        <path
            d="M118.369 105.36C118.204 105.36 118.041 105.328 117.889 105.266C117.737 105.204 117.599 105.113 117.482 104.998C117.366 104.884 117.273 104.747 117.21 104.597C117.147 104.447 117.115 104.286 117.115 104.124V98.9569C117.109 98.6644 117.206 98.3789 117.389 98.1487C117.572 97.9184 117.829 97.7574 118.118 97.6929C118.301 97.6566 118.489 97.6607 118.669 97.7049C118.85 97.749 119.018 97.8322 119.162 97.9483C119.306 98.0645 119.422 98.2107 119.502 98.3766C119.581 98.5424 119.623 98.7236 119.623 98.9071V100.477H121.744V99.0252C121.744 97.2519 120.393 95.7038 118.599 95.582C118.137 95.5512 117.675 95.6142 117.239 95.7671C116.803 95.92 116.404 96.1595 116.066 96.4708C115.728 96.7821 115.458 97.1587 115.273 97.5771C115.089 97.9955 114.993 98.4469 114.992 98.9034V104.007C114.992 105.746 116.3 107.273 118.049 107.434C118.236 107.45 118.423 107.45 118.61 107.434C119.946 107.343 119.836 105.345 118.496 105.345L118.369 105.36Z"
            fill="#EDFCFF" />
        <path d="M100.663 117.841H93.8092V124.607H100.663V117.841Z" fill="#C3E9D0" />
        <path d="M100.663 127.803H93.8092V134.57H100.663V127.803Z" fill="#C3E9D0" />
        <path d="M100.663 137.766H93.8092V144.532H100.663V137.766Z" fill="#C3E9D0" />
        <path d="M112.291 117.841H105.438V124.607H112.291V117.841Z" fill="#069550" />
        <path d="M112.291 127.803H105.438V134.57H112.291V127.803Z" fill="#C3E9D0" />
        <path d="M112.291 137.766H105.438V144.532H112.291V137.766Z" fill="#C3E9D0" />
        <path d="M123.92 117.841H117.066V124.607H123.92V117.841Z" fill="#069550" />
        <path d="M123.92 127.803H117.066V134.57H123.92V127.803Z" fill="#069550" />
        <path d="M123.92 137.766H117.066V144.532H123.92V137.766Z" fill="#C3E9D0" />
        <path d="M87.1995 117.168H82.0091V120.543H87.1995V117.168Z" fill="#FF9500" />
        <path d="M89.3996 115.984H79.8094V118.042H89.3996V115.984Z" fill="#100C25" />
        <path
            d="M84.5442 153.484C94.0936 153.484 101.835 145.841 101.835 136.412C101.835 126.984 94.0936 119.341 84.5442 119.341C74.9947 119.341 67.2534 126.984 67.2533 136.412C67.2533 145.841 74.9947 153.484 84.5442 153.484Z"
            fill="#100C25" />
        <path
            d="M98.3781 139.596C100.156 132.054 95.4041 124.517 87.7648 122.762C80.1255 121.007 72.4915 125.698 70.7138 133.24C68.9361 140.783 73.6878 148.32 81.3271 150.075C88.9664 151.83 96.6004 147.139 98.3781 139.596Z"
            fill="#FFF9E1" />
        <path
            d="M76.5212 128.858C76.4743 128.859 76.4278 128.85 76.3846 128.832C76.3413 128.814 76.3022 128.788 76.2695 128.755L75.676 128.171C75.609 128.105 75.5714 128.015 75.5714 127.921C75.5714 127.828 75.609 127.738 75.676 127.672C75.743 127.606 75.8339 127.569 75.9287 127.569C76.0235 127.569 76.1144 127.606 76.1814 127.672L76.7728 128.256C76.8061 128.288 76.8325 128.327 76.8506 128.37C76.8686 128.413 76.8779 128.459 76.8779 128.505C76.8779 128.552 76.8686 128.598 76.8506 128.64C76.8325 128.683 76.8061 128.722 76.7728 128.755C76.7402 128.788 76.701 128.814 76.6578 128.832C76.6145 128.85 76.568 128.859 76.5212 128.858Z"
            fill="#FFEEB4" />
        <path
            d="M93.2983 145.425C93.2039 145.424 93.1135 145.387 93.0466 145.321L92.4532 144.735C92.3861 144.669 92.3485 144.579 92.3485 144.486C92.3485 144.392 92.3861 144.302 92.4532 144.236C92.5202 144.17 92.6111 144.133 92.7059 144.133C92.8006 144.133 92.8915 144.17 92.9586 144.236L93.5521 144.822C93.6016 144.872 93.6351 144.935 93.6486 145.003C93.6621 145.071 93.6548 145.142 93.6277 145.206C93.6006 145.271 93.5549 145.326 93.4963 145.365C93.4377 145.403 93.3688 145.424 93.2983 145.425Z"
            fill="#FFEEB4" />
        <path
            d="M75.9275 145.425C75.8571 145.424 75.7885 145.403 75.7303 145.364C75.672 145.325 75.6266 145.27 75.5998 145.206C75.5729 145.141 75.5659 145.071 75.5794 145.002C75.5929 144.934 75.6265 144.872 75.6758 144.822L76.2693 144.236C76.3364 144.17 76.4271 144.133 76.5217 144.133C76.6163 144.134 76.7069 144.171 76.7737 144.237C76.8404 144.303 76.8778 144.393 76.8776 144.486C76.8774 144.58 76.8397 144.669 76.7726 144.735L76.1813 145.321C76.1137 145.387 76.0226 145.424 75.9275 145.425Z"
            fill="#FFEEB4" />
        <path
            d="M92.7066 128.858C92.6595 128.859 92.6127 128.85 92.5691 128.832C92.5255 128.814 92.4859 128.788 92.4529 128.755C92.3862 128.688 92.3487 128.599 92.3487 128.505C92.3487 128.412 92.3862 128.322 92.4529 128.256L93.0464 127.672C93.0795 127.639 93.1189 127.613 93.1623 127.595C93.2056 127.577 93.2521 127.568 93.2991 127.568C93.346 127.568 93.3925 127.577 93.4359 127.595C93.4793 127.613 93.5187 127.639 93.5518 127.672C93.6185 127.738 93.656 127.828 93.656 127.921C93.656 128.015 93.6185 128.105 93.5518 128.171L92.9583 128.755C92.9256 128.788 92.8864 128.814 92.8432 128.832C92.7999 128.85 92.7535 128.859 92.7066 128.858Z"
            fill="#FFEEB4" />
        <path
            d="M84.6014 125.479C85.0531 125.479 85.4193 125.118 85.4193 124.672C85.4193 124.226 85.0531 123.864 84.6014 123.864C84.1497 123.864 83.7835 124.226 83.7835 124.672C83.7835 125.118 84.1497 125.479 84.6014 125.479Z"
            fill="#100C25" />
        <path
            d="M84.6014 148.965C85.0531 148.965 85.4193 148.604 85.4193 148.158C85.4193 147.712 85.0531 147.35 84.6014 147.35C84.1497 147.35 83.7835 147.712 83.7835 148.158C83.7835 148.604 84.1497 148.965 84.6014 148.965Z"
            fill="#100C25" />
        <path
            d="M72.7086 135.608C72.8703 135.608 73.0285 135.656 73.163 135.744C73.2975 135.833 73.4023 135.959 73.4642 136.107C73.5261 136.254 73.5423 136.417 73.5107 136.573C73.4792 136.73 73.4013 136.874 73.2869 136.987C73.1725 137.1 73.0268 137.177 72.8681 137.208C72.7095 137.239 72.545 137.223 72.3956 137.162C72.2461 137.101 72.1184 136.997 72.0285 136.864C71.9387 136.732 71.8907 136.576 71.8907 136.416C71.8907 136.202 71.9769 135.996 72.1302 135.845C72.2836 135.693 72.4917 135.608 72.7086 135.608Z"
            fill="#100C25" />
        <path
            d="M96.4942 135.608C96.6561 135.608 96.8144 135.655 96.9492 135.743C97.084 135.832 97.1891 135.958 97.2513 136.105C97.3136 136.253 97.3301 136.415 97.2987 136.572C97.2674 136.729 97.1897 136.873 97.0754 136.986C96.9611 137.099 96.8154 137.176 96.6567 137.208C96.4979 137.239 96.3334 137.223 96.1838 137.162C96.0342 137.101 95.9064 136.998 95.8164 136.865C95.7265 136.732 95.6784 136.576 95.6784 136.416C95.6782 136.31 95.6991 136.205 95.7399 136.107C95.7808 136.009 95.8409 135.92 95.9166 135.845C95.9924 135.77 96.0824 135.71 96.1815 135.67C96.2807 135.629 96.3869 135.608 96.4942 135.608Z"
            fill="#100C25" />
        <path
            d="M89.6827 129.138L83.8464 135.892C83.7538 135.984 83.6824 136.094 83.6372 136.215C83.5919 136.337 83.5739 136.467 83.5842 136.596C83.6004 136.806 83.6899 137.003 83.8375 137.155C83.9852 137.307 84.1816 137.403 84.3933 137.428C84.605 137.452 84.8187 137.403 84.9978 137.289C85.177 137.175 85.3104 137.003 85.3752 136.803L89.8861 129.283C89.9025 129.256 89.9082 129.224 89.9019 129.194C89.8956 129.163 89.8778 129.136 89.8522 129.118C89.8265 129.099 89.7948 129.091 89.7634 129.095C89.732 129.099 89.7032 129.114 89.6827 129.138Z"
            fill="#FF9500" />
        <path
            d="M81.0127 54.4305H118.987C118.987 57.2269 116.721 59.4938 113.924 59.4938H86.076C83.2796 59.4938 81.0127 57.2269 81.0127 54.4305Z"
            fill="#001B3D" />
    </g>
    <defs>
        <clipPath id="clip0_1096_7120">
            <rect width="200" height="200" fill="white" />
        </clipPath>
    </defs>
</svg>