<svg width="25" height="24" viewBox="0 0 25 24" fill="none" xmlns="http://www.w3.org/2000/svg">
    <g clip-path="url(#clip0_1316_14457)">
        <path
            d="M10.194 15.328H14.3059C14.8542 15.328 15.3339 14.8483 15.3339 14.3V11.756C15.3339 11.2077 14.8542 10.728 14.3059 10.728H10.194C9.64574 10.728 9.16602 11.2077 9.16602 11.756V14.3C9.16602 14.9168 9.64574 15.328 10.194 15.328Z"
            stroke="black" stroke-width="1.5" stroke-miterlimit="10" stroke-linecap="round" stroke-linejoin="round" />
        <path
            d="M12.2503 7.16237C11.0853 7.16237 10.1943 8.05329 10.1943 9.21834V10.7282H14.3063V9.21834C14.3063 8.12182 13.4153 7.16237 12.2503 7.16237Z"
            stroke="black" stroke-width="1.5" stroke-miterlimit="10" stroke-linecap="round" stroke-linejoin="round" />
        <path
            d="M4.80298 11.632C4.80298 13.6073 5.58768 15.5018 6.98445 16.8985C8.38122 18.2953 10.2756 19.08 12.251 19.08C14.2263 19.08 16.1207 18.2953 17.5175 16.8985C18.9143 15.5018 19.699 13.6073 19.699 11.632C19.699 9.65667 18.9143 7.76225 17.5175 6.36547C16.1207 4.9687 14.2263 4.18401 12.251 4.18401C10.2756 4.18401 8.38122 4.9687 6.98445 6.36547C5.58768 7.76225 4.80298 9.65667 4.80298 11.632Z"
            stroke="black" stroke-width="1.5" stroke-linecap="round" stroke-linejoin="round" />
        <path
            d="M20.373 3.14401C20.373 3.53865 20.5298 3.91713 20.8088 4.19618C21.0879 4.47523 21.4663 4.63201 21.861 4.63201C22.2556 4.63201 22.6341 4.47523 22.9132 4.19618C23.1922 3.91713 23.349 3.53865 23.349 3.14401C23.349 2.74936 23.1922 2.37088 22.9132 2.09183C22.6341 1.81278 22.2556 1.65601 21.861 1.65601C21.4663 1.65601 21.0879 1.81278 20.8088 2.09183C20.5298 2.37088 20.373 2.74936 20.373 3.14401Z"
            stroke="black" stroke-width="1.5" stroke-linecap="round" stroke-linejoin="round" />
        <path
            d="M4.127 3.14401C4.127 3.33941 4.08851 3.53291 4.01373 3.71344C3.93895 3.89397 3.82935 4.05801 3.69118 4.19618C3.553 4.33435 3.38897 4.44396 3.20843 4.51874C3.0279 4.59352 2.83441 4.63201 2.639 4.63201C2.44359 4.63201 2.2501 4.59352 2.06957 4.51874C1.88904 4.44396 1.725 4.33435 1.58683 4.19618C1.44865 4.05801 1.33905 3.89397 1.26427 3.71344C1.18949 3.53291 1.151 3.33941 1.151 3.14401C1.151 2.9486 1.18949 2.75511 1.26427 2.57457C1.33905 2.39404 1.44865 2.23 1.58683 2.09183C1.725 1.95366 1.88904 1.84405 2.06957 1.76927C2.2501 1.69449 2.44359 1.65601 2.639 1.65601C2.83441 1.65601 3.0279 1.69449 3.20843 1.76927C3.38897 1.84405 3.553 1.95366 3.69118 2.09183C3.82935 2.23 3.93895 2.39404 4.01373 2.57457C4.08851 2.75511 4.127 2.9486 4.127 3.14401Z"
            stroke="black" stroke-width="1.5" stroke-linecap="round" stroke-linejoin="round" />
        <path d="M8.375 18L6.85776 20.1458L1.17188 20.1457" stroke="black" stroke-width="1.5" stroke-linecap="round"
            stroke-linejoin="round" />
        <path d="M16.4375 17.8281L18.068 20.1457L23.3498 20.1458" stroke="black" stroke-width="1.5"
            stroke-linecap="round" stroke-linejoin="round" />
        <path d="M8.34374 5.26562L6.85688 3.14355H4.12561" stroke="black" stroke-width="1.5" stroke-linecap="round"
            stroke-linejoin="round" />
        <path d="M16.1562 5.28125L17.6421 3.14355H20.3734" stroke="black" stroke-width="1.5" stroke-linecap="round"
            stroke-linejoin="round" />
        <path d="M21.1504 17.9473L23.3489 20.1458L21.1504 22.3442" stroke="black" stroke-width="1.5"
            stroke-linecap="round" stroke-linejoin="round" />
        <path d="M3.34961 22.3442L1.15112 20.1458L3.34961 17.9473" stroke="black" stroke-width="1.5"
            stroke-linecap="round" stroke-linejoin="round" />
    </g>
    <defs>
        <clipPath id="clip0_1316_14457">
            <rect width="24" height="24" fill="white" transform="translate(0.25)" />
        </clipPath>
    </defs>
</svg>