<svg width="286" height="264" viewBox="0 0 286 264" fill="none" xmlns="http://www.w3.org/2000/svg">
    <path
        d="M1.7572 258.125C1.7572 260.536 29.7507 262.489 64.2746 262.489C98.7986 262.489 126.792 260.536 126.792 258.125C126.792 255.713 98.7986 253.76 64.2746 253.76C29.7507 253.76 1.7572 255.713 1.7572 258.125Z"
        fill="#263238" stroke="#263238" stroke-width="2" stroke-linecap="round" stroke-linejoin="round" />
    <path
        d="M205.52 253.761C248.998 253.761 284.243 251.793 284.243 249.366C284.243 246.939 248.998 244.972 205.52 244.972C162.043 244.972 126.798 246.939 126.798 249.366C126.798 251.793 162.043 253.761 205.52 253.761Z"
        fill="#263238" stroke="#263238" stroke-width="2" stroke-linecap="round" stroke-linejoin="round" />
    <path d="M4.79224 205.174H280.099" stroke="#263238" stroke-width="2" stroke-linecap="round"
        stroke-linejoin="round" />
    <path
        d="M264.621 150.767H199.99L194.816 138.182C193.338 134.585 189.606 132.21 185.445 132.21H148.909C144.748 132.21 141.016 134.585 139.538 138.182L136.012 149.582C135.358 151.704 135.013 153.91 135.001 156.128L134.364 239.526C134.364 244.905 138.666 249.263 143.978 249.263H274.235V160.505C274.235 155.125 269.934 150.767 264.621 150.767Z"
        fill="#1E88E5" />
    <path
        d="M264.621 150.767H199.99L194.816 138.182C193.338 134.585 189.606 132.21 185.445 132.21H148.909C147.583 132.21 146.305 132.452 145.129 132.899H180.695C184.857 132.899 190.557 135.275 192.036 138.871L197.209 151.456H259.872C265.178 151.456 271.454 155.814 271.454 161.194V249.269H274.241V160.511C274.241 155.131 269.94 150.773 264.627 150.773L264.621 150.767Z"
        fill="white" />
    <path
        d="M264.621 150.767H199.99L194.816 138.182C193.338 134.585 189.606 132.21 185.445 132.21H148.909C144.748 132.21 141.016 134.585 139.538 138.182L136.012 149.582C135.358 151.704 135.013 153.91 135.001 156.128L134.364 239.526C134.364 244.905 138.666 249.263 143.978 249.263H274.235V160.505C274.235 155.125 269.934 150.767 264.621 150.767Z"
        stroke="#263238" stroke-width="2" stroke-linecap="round" stroke-linejoin="round" />
    <path
        d="M144.808 249.269H274.235L252.051 176.734C250.858 172.829 247.29 170.164 243.255 170.164H124.648C118.444 170.164 114.016 176.251 115.852 182.253L133.843 241.085C135.334 245.951 139.774 249.269 144.802 249.269H144.808Z"
        fill="#1E88E5" />
    <path
        d="M122.006 173.38H240.614C244.648 173.38 248.21 176.039 249.41 179.95L270.612 249.269H274.241L252.057 176.734C250.864 172.829 247.296 170.164 243.261 170.164H124.654C120.983 170.164 117.948 172.304 116.451 175.29C117.978 174.111 119.886 173.38 122.012 173.38H122.006Z"
        fill="white" />
    <path
        d="M144.808 249.269H274.235L252.051 176.734C250.858 172.829 247.29 170.164 243.255 170.164H124.648C118.444 170.164 114.016 176.251 115.852 182.253L133.843 241.085C135.334 245.951 139.774 249.269 144.802 249.269H144.808Z"
        stroke="#263238" stroke-width="2" stroke-linecap="round" stroke-linejoin="round" />
    <path
        d="M187.468 226.022C195.31 226.022 201.668 219.678 201.668 211.853C201.668 204.028 195.31 197.685 187.468 197.685C179.626 197.685 173.268 204.028 173.268 211.853C173.268 219.678 179.626 226.022 187.468 226.022Z"
        fill="#263238" stroke="#263238" stroke-width="2" stroke-linecap="round" stroke-linejoin="round" />
    <path d="M180.622 218.69C189.152 210.179 194.319 205.023 194.319 205.023" stroke="#F2F2F2" stroke-width="2"
        stroke-linecap="round" stroke-linejoin="round" />
    <path d="M180.622 205.023C189.152 213.534 194.319 218.69 194.319 218.69" stroke="#F2F2F2" stroke-width="2"
        stroke-linecap="round" stroke-linejoin="round" />
    <path
        d="M218.914 98.5474C218.575 98.5474 218.26 98.354 218.115 98.0276L213.505 87.5886L202.788 91.5539C202.358 91.7171 201.874 91.5115 201.686 91.0884L197.076 80.6494L186.359 84.6147C185.923 84.7779 185.439 84.5724 185.251 84.1492L183.694 80.6252L176.303 97.4171L213.172 113.562L219.914 98.2392L219.217 98.4991C219.114 98.5354 219.011 98.5535 218.914 98.5535V98.5474Z"
        fill="white" stroke="#9ABAE3" stroke-width="2" stroke-linecap="round" stroke-linejoin="round" />
    <path d="M254.486 165.703C254.486 165.703 254.868 165.038 255.431 163.835" stroke="#263238" stroke-width="2"
        stroke-linecap="round" stroke-linejoin="round" />
    <path
        d="M257.006 159.912C260.078 151.093 263.222 133.594 248.647 117.274C233.556 100.373 206.266 104.03 183.779 109.488C165.793 113.852 146.716 106.369 144.324 96.4923C140.119 79.1081 159.371 64.5588 181.204 60.3699C193.096 58.091 221.834 63.785 231.945 68.2278C250.397 76.3336 256.637 50.5232 231.097 38.3555"
        stroke="#263238" stroke-width="2" stroke-linecap="round" stroke-linejoin="round" />
    <path d="M229.164 37.4912C228.534 37.2252 227.88 36.9653 227.214 36.7114" stroke="#263238" stroke-width="2"
        stroke-linecap="round" stroke-linejoin="round" />
    <path
        d="M198.681 75.0884C199.117 74.9252 199.602 75.1307 199.784 75.5539L204.394 85.9929L215.11 82.0276C215.54 81.8644 216.031 82.0699 216.213 82.4931L220.823 92.932L222.337 92.3759L227.056 81.6468L227.511 80.6132L220.726 61.9415L220.174 61.6997L196.434 51.303L186.087 74.8104L187.959 79.0476L198.675 75.0824L198.681 75.0884Z"
        fill="white" stroke="#9ABAE3" stroke-width="2" stroke-linecap="round" stroke-linejoin="round" />
    <path d="M227.517 80.6193L227.062 81.6529L213.929 75.9045L220.181 61.7058L220.732 61.9476L227.517 80.6193Z"
        fill="white" stroke="#9ABAE3" stroke-width="2" stroke-linecap="round" stroke-linejoin="round" />
    <path
        d="M222.186 33.1511C223.567 33.8886 224.33 35.1519 223.888 35.9679C223.446 36.7839 221.974 36.8504 220.592 36.113C219.211 35.3755 218.448 34.1122 218.89 33.2962C219.332 32.4802 220.804 32.4137 222.186 33.1511Z"
        fill="#263238" stroke="#263238" stroke-width="2" stroke-linecap="round" stroke-linejoin="round" />
    <path
        d="M215.11 35.2546C216.837 34.5232 218.624 34.8255 219.096 35.9377C219.569 37.0499 218.557 38.5489 216.83 39.2803C215.104 40.0117 213.317 39.7095 212.844 38.5973C212.372 37.4851 213.384 35.986 215.11 35.2546Z"
        fill="white" stroke="#263238" stroke-width="2" stroke-linecap="round" stroke-linejoin="round" />
    <path
        d="M217.685 39.6371C217.442 37.7814 218.218 36.1494 219.417 35.9922C220.617 35.835 221.792 37.2132 222.034 39.0689C222.277 40.9246 221.501 42.5566 220.302 42.7138C219.102 42.8709 217.927 41.4928 217.685 39.6371Z"
        fill="white" stroke="#263238" stroke-width="2" stroke-linecap="round" stroke-linejoin="round" />
    <path
        d="M218.357 29.2101C218.702 31.0537 219.944 32.3654 221.138 32.1417C222.331 31.9181 223.016 30.2498 222.67 28.4062C222.325 26.5626 221.083 25.2509 219.89 25.4745C218.696 25.6982 218.012 27.3665 218.357 29.2101Z"
        fill="white" stroke="#263238" stroke-width="2" stroke-linecap="round" stroke-linejoin="round" />
    <path
        d="M223.434 28.926C221.749 29.7541 220.817 31.3016 221.35 32.3896C221.883 33.4776 223.682 33.6831 225.366 32.8611C227.05 32.033 227.983 30.4855 227.45 29.3975C226.917 28.3095 225.118 28.104 223.434 28.926Z"
        fill="white" stroke="#263238" stroke-width="2" stroke-linecap="round" stroke-linejoin="round" />
    <path
        d="M218.381 31.5977C218.993 31.9241 219.223 32.6857 218.896 33.2962C218.569 33.9067 217.806 34.1364 217.194 33.81C216.582 33.4836 216.352 32.722 216.679 32.1115C217.006 31.501 217.769 31.2713 218.381 31.5977Z"
        fill="#263238" stroke="#263238" stroke-width="2" stroke-linecap="round" stroke-linejoin="round" />
    <path
        d="M63.3902 8.42275L63.7537 9.35362L73.6704 34.7348L40.5762 47.6098L25.6798 9.48056L46.9915 1.19343L47.4882 1L63.3902 8.42275Z"
        fill="white" stroke="#9ABAE3" stroke-width="2" stroke-linecap="round" stroke-linejoin="round" />
    <path d="M63.3902 8.42275L63.7536 9.35362L51.971 13.9354L46.9915 1.19343L47.4882 1L63.3902 8.42275Z" fill="white"
        stroke="#9ABAE3" stroke-width="2" stroke-linecap="round" stroke-linejoin="round" />
    <path d="M49.2632 31.8154C52.3285 24.6223 54.1822 20.2642 54.1822 20.2642L49.2632 31.8154Z" fill="white" />
    <path d="M49.2632 31.8154C52.3285 24.6223 54.1822 20.2642 54.1822 20.2642" stroke="#9ABAE3" stroke-width="2"
        stroke-linecap="round" stroke-linejoin="round" />
    <path d="M45.9374 23.5886C53.1463 26.6472 57.514 28.4968 57.514 28.4968L45.9374 23.5886Z" fill="white" />
    <path d="M45.9374 23.5886C53.1463 26.6472 57.514 28.4968 57.514 28.4968" stroke="#9ABAE3" stroke-width="2"
        stroke-linecap="round" stroke-linejoin="round" />
    <path
        d="M152.12 4.90479H113.665C112.302 4.90479 111.193 6.01094 111.193 7.37098V36.6993C111.193 38.0593 112.302 39.1655 113.665 39.1655H123.206V48.5648C123.206 49.6287 124.466 50.1908 125.259 49.4897L136.909 39.1716H152.12C153.483 39.1716 154.592 38.0654 154.592 36.7054V7.37098C154.592 6.01094 153.483 4.90479 152.12 4.90479Z"
        fill="white" stroke="#263238" stroke-width="2" stroke-linecap="round" stroke-linejoin="round" />
    <path
        d="M132.402 26.206C131.342 26.206 130.548 25.124 130.978 24.1569C130.978 24.1569 130.978 24.1448 130.984 24.1387C131.251 23.5464 131.584 23.0144 131.99 22.549C132.396 22.0836 132.826 21.6484 133.28 21.2434C133.734 20.8384 134.171 20.4455 134.57 20.0647C134.976 19.6839 135.303 19.2789 135.558 18.8558C135.776 18.4931 135.897 18.0941 135.933 17.6589C135.994 16.8248 135.679 15.9725 135.049 15.4224C134.322 14.7817 133.28 14.4674 131.917 14.4674C130.79 14.4674 129.791 14.6729 128.918 15.09C128.44 15.3136 128.01 15.5977 127.622 15.9362C127.028 16.4561 126.15 16.4923 125.49 16.0632C124.472 15.3983 124.381 13.9234 125.332 13.1678C125.883 12.7326 126.495 12.3518 127.168 12.0314C128.615 11.3423 130.318 10.9978 132.274 10.9978C133.849 10.9978 135.219 11.2275 136.394 11.6808C137.563 12.1402 138.478 12.793 139.138 13.6574C139.798 14.5158 140.125 15.5494 140.125 16.7643C140.125 17.6589 139.998 18.4145 139.744 19.0431C139.489 19.6718 139.156 20.2218 138.738 20.6994C138.32 21.1769 137.878 21.6242 137.399 22.0352C136.921 22.4462 136.473 22.8573 136.061 23.2623C135.649 23.6673 135.303 24.1085 135.037 24.586C134.934 24.7674 134.855 24.9608 134.795 25.1603C134.595 25.795 134.013 26.2302 133.347 26.2302H132.402V26.206ZM132.632 33.8161C131.905 33.8161 131.305 33.5743 130.827 33.0847C130.348 32.5951 130.106 32.0148 130.106 31.3318C130.106 30.6488 130.342 30.0745 130.827 29.597C131.305 29.1195 131.905 28.8777 132.632 28.8777C133.395 28.8777 134.013 29.1134 134.486 29.597C134.952 30.0745 135.188 30.6548 135.188 31.3318C135.188 32.0088 134.952 32.5951 134.486 33.0847C134.019 33.5743 133.401 33.8161 132.632 33.8161Z"
        fill="#1E88E5" stroke="#263238" stroke-width="2" stroke-linecap="round" stroke-linejoin="round" />
    <path
        d="M43.4113 146.735C43.4113 146.735 33.6823 142.782 35.736 141.416C37.7835 140.05 45.3074 141.44 45.3074 141.44L44.2655 143.489L43.4113 146.735Z"
        fill="#263238" stroke="#263238" stroke-width="2" stroke-linecap="round" stroke-linejoin="round" />
    <path
        d="M28.3393 232.139C28.3393 232.139 18.9374 227.164 22.2147 226.56C25.486 225.949 29.8295 229.655 29.8295 229.655L28.3393 232.139Z"
        fill="#263238" stroke="#263238" stroke-width="2" stroke-linecap="round" stroke-linejoin="round" />
    <path d="M78.1291 252.267L100.913 248.87L113.901 258.457L77.4203 258.65L78.1291 252.267Z" fill="#1E88E5"
        stroke="#263238" stroke-width="2" stroke-linecap="round" stroke-linejoin="round" />
    <path d="M78.6621 240.19L100.416 238.697L100.695 248.87L78.129 252.437L78.6621 240.19Z" fill="#B5846B"
        stroke="#263238" stroke-width="2" stroke-linecap="round" stroke-linejoin="round" />
    <path d="M22.6569 235.983L42.2724 244.47L47.8033 258.681L18.7375 242.113L22.6569 235.983Z" fill="#1E88E5"
        stroke="#263238" stroke-width="2" stroke-linecap="round" stroke-linejoin="round" />
    <path d="M31.4893 223.03L48.3 235.113L42.963 244.966L22.6569 235.983L31.4893 223.03Z" fill="#B5846B"
        stroke="#263238" stroke-width="2" stroke-linecap="round" stroke-linejoin="round" />
    <path
        d="M79.1225 177.29C77.8746 185.154 75.1425 196.071 75.1425 196.071L70.4658 205.857C70.7202 207.979 68.9332 213.268 72.9798 223.695C75.3485 229.788 72.471 241.417 72.471 241.417L77.7777 242.415C82.2484 243.255 86.8403 243.213 91.2989 242.294L92.4075 242.064C96.6844 241.182 101.082 241.103 105.39 241.847L107.158 242.149C107.158 242.149 108.297 198.537 107.516 192.414C106.692 185.952 104.705 147.315 104.705 147.315L71.3381 142.818C71.3381 142.818 71.3381 143.048 71.3442 143.459L45.5134 136.03C45.5134 136.03 38.7649 147.225 41.0547 157.561C42.5995 164.512 43.0902 174.74 42.2239 180.869C41.8362 183.595 41.7756 189.21 39.4676 190.715C36.5416 192.619 30.6958 199.408 28.7209 207.126C28.1938 209.2 27.7516 211.714 27.691 214.428C27.5335 220.963 24.6742 222.939 24.6742 222.939L21.6453 226.288C23.5838 225.593 29.8416 229.643 29.8416 229.643L31.5923 230.882C35.2695 233.481 39.3464 235.421 43.5991 236.908C45.1438 237.446 47.3489 238.141 47.3489 238.141C47.7548 238.631 53.637 230.199 53.637 230.199C53.637 230.199 75.3666 203.282 76.4995 190.413C76.9417 185.414 77.9412 184.894 79.1346 177.278"
        fill="#9ABAE3" />
    <path
        d="M78.0382 185.426L67.8367 203.506C60.9367 216.127 49.869 230.205 49.869 230.205C49.869 230.205 46.3978 235.179 44.6047 237.259C45.9495 237.706 47.3307 238.141 47.3307 238.141C47.7366 238.631 53.6188 230.199 53.6188 230.199C53.6188 230.199 67.1824 209.732 73.4099 199.988C73.2888 196.953 78.1714 186.508 78.0382 185.414V185.426Z"
        fill="white" />
    <path
        d="M107.504 192.414C106.68 185.952 104.693 147.315 104.693 147.315L102.524 147.025C102.239 147.877 101.743 148.639 101.04 149.207C101.452 157.029 103.039 186.817 103.754 192.414C104.481 198.126 103.542 236.419 103.409 241.569C104.069 241.641 104.723 241.732 105.377 241.841L107.146 242.143C107.146 242.143 108.285 198.531 107.504 192.408V192.414Z"
        fill="white" />
    <path
        d="M70.4658 205.857C70.7202 207.979 68.9332 213.268 72.9798 223.695C75.3485 229.788 72.471 241.417 72.471 241.417L77.7777 242.415C82.2484 243.255 86.8403 243.213 91.2989 242.294L92.4075 242.064C96.6844 241.182 101.082 241.103 105.39 241.847L107.158 242.149C107.158 242.149 108.297 198.537 107.516 192.414C106.692 185.952 104.705 147.315 104.705 147.315L71.3381 142.818C71.3381 142.818 71.3381 143.048 71.3442 143.459L45.5134 136.03C45.5134 136.03 38.7649 147.225 41.0547 157.561C42.5995 164.512 43.0902 174.74 42.2239 180.869C41.8362 183.595 41.7756 189.21 39.4676 190.715C36.5416 192.619 30.6958 199.408 28.7209 207.126C28.1938 209.2 27.7516 211.714 27.691 214.428C27.5335 220.963 24.6742 222.939 24.6742 222.939L21.6453 226.288C23.5838 225.593 29.8416 229.643 29.8416 229.643L31.5923 230.882C35.2695 233.481 39.3464 235.421 43.5991 236.908C45.1438 237.446 47.3489 238.141 47.3489 238.141C47.7548 238.631 53.637 230.199 53.637 230.199C53.637 230.199 74.8033 203.276 76.8387 190.522C77.39 187.083 78.2199 182.35 79.1346 177.278"
        stroke="#263238" stroke-width="2" stroke-linecap="round" stroke-linejoin="round" />
    <path
        d="M126.077 121.469L126.792 122.726C126.792 122.726 114.04 132.331 113.283 134.513L112.077 136.725C108.806 139.814 104.233 134.501 104.644 134.513C104.644 134.513 106.486 145.943 106.462 147.938C106.462 147.938 107.734 155.747 79.6678 152.399C67.1279 150.906 49.2753 138.327 35.4391 141.482C35.4391 141.482 35.2695 137.886 38.4499 126.02C42.9327 109.301 47.7063 98.8256 47.4761 96.3473C47.4761 96.3473 41.2547 101.086 33.7974 98.064C28.0606 95.7368 22.6691 89.1724 28.624 81.2117C35.1604 72.4773 41.291 71.897 43.2598 71.1112C43.8959 70.8573 53.0191 66.8195 58.0047 66.2453C60.6642 65.937 69.7934 67.829 70.6657 69.2615L78.3108 70.8634C78.3108 70.8634 83.987 71.5766 84.7867 71.5585C91.8744 71.4074 88.9545 70.9057 93.4737 72.7674C96.4905 74.0126 97.9989 73.39 100.507 74.7137C103.463 76.2733 109.854 77.9778 113.277 80.2083C119.371 84.1856 121.831 92.0375 120.098 98.0821C117.796 106.121 119.056 115.37 119.068 115.098C119.068 115.098 124.854 120.09 126.071 121.463L126.077 121.469Z"
        fill="#1E88E5" />
    <path
        d="M96.9752 76.1463C99.9314 77.7058 106.322 79.4104 109.745 81.6409C115.839 85.6182 118.299 93.4701 116.566 99.5147C114.264 107.554 115.524 116.802 115.537 116.53C115.537 116.53 121.322 121.523 122.539 122.895L123.254 124.152C123.254 124.152 123.133 124.243 122.921 124.406C123.127 124.43 123.333 124.461 123.545 124.503C123.787 124.551 124.018 124.618 124.236 124.69C125.75 123.512 126.798 122.72 126.798 122.72L126.083 121.463C124.866 120.09 119.08 115.098 119.08 115.098C119.068 115.37 117.808 106.121 120.11 98.0821C121.843 92.0375 119.383 84.1856 113.289 80.2083C109.866 77.9718 103.469 76.2672 100.519 74.7137C98.0111 73.39 96.4966 74.0126 93.4858 72.7674C88.9666 70.8996 91.8865 71.4013 84.7988 71.5585C83.9992 71.5766 78.3229 70.8634 78.3229 70.8634L70.6779 69.2615C69.8116 67.829 60.6823 65.937 58.0169 66.2453C53.9823 66.7107 47.2459 69.4429 44.4775 70.6034C47.6397 69.3885 51.6985 67.9922 54.4791 67.6718C57.1385 67.3635 66.2677 69.2555 67.1401 70.6881L74.7851 72.2899C74.7851 72.2899 80.4614 73.0031 81.261 72.985C88.3487 72.8339 85.4288 72.3322 89.948 74.1939C92.9648 75.4391 94.4733 74.8165 96.9812 76.1403L96.9752 76.1463Z"
        fill="white" />
    <path
        d="M39.7281 72.5377C39.9401 72.453 41.0669 71.9634 42.6601 71.3167C41.5636 71.6491 39.819 72.0722 37.6805 73.1723C38.5589 72.9003 39.2617 72.725 39.7281 72.5377Z"
        fill="white" />
    <path
        d="M126.077 121.469L126.792 122.726C126.792 122.726 114.04 132.331 113.283 134.513L112.077 136.725C108.806 139.814 104.233 134.501 104.644 134.513C104.644 134.513 106.486 145.943 106.462 147.938C106.462 147.938 107.734 155.747 79.6678 152.399C67.1279 150.906 49.2753 138.327 35.4391 141.482C35.4391 141.482 35.2695 137.886 38.4499 126.02C42.9327 109.301 47.7063 98.8256 47.4761 96.3473C47.4761 96.3473 41.2547 101.086 33.7974 98.064C28.0606 95.7368 22.6691 89.1724 28.624 81.2117C35.1604 72.4773 41.291 71.897 43.2598 71.1112C43.8959 70.8573 53.0191 66.8195 58.0047 66.2453C60.6642 65.937 69.7934 67.829 70.6657 69.2615L78.3108 70.8634C78.3108 70.8634 83.987 71.5766 84.7867 71.5585C91.8744 71.4074 88.9545 70.9057 93.4737 72.7674C96.4905 74.0126 97.9989 73.39 100.507 74.7138C103.463 76.2733 109.854 77.9778 113.277 80.2083C119.371 84.1856 121.831 92.0375 120.098 98.0821C117.796 106.121 119.056 115.37 119.068 115.098C119.068 115.098 124.854 120.09 126.071 121.463L126.077 121.469Z"
        stroke="#263238" stroke-width="2" stroke-linecap="round" stroke-linejoin="round" />
    <path
        d="M107.74 100.034C107.419 102.416 106.831 106.962 105.262 113.091C102.185 125.113 104.651 134.513 104.651 134.513"
        stroke="#263238" stroke-width="2" stroke-linecap="round" stroke-linejoin="round" />
    <path d="M110.745 105.626C109.987 108.14 105.741 111.144 105.741 111.144" stroke="#263238" stroke-width="2"
        stroke-linecap="round" stroke-linejoin="round" />
    <path
        d="M86.4162 78.7516C87.7369 81.0485 89.4997 82.0338 90.5356 80.6738C91.5715 79.2835 91.4564 76.237 90.6568 73.5049C90.3539 72.4954 89.948 71.5343 89.4694 70.7123C88.5668 69.1407 87.4279 68.0829 86.3738 68.1433C85.5136 68.1192 84.926 69.2132 84.7079 70.4645C84.4777 71.7761 84.5989 73.4203 84.9866 75.0402C85.3016 76.3579 85.7923 77.6575 86.4223 78.7516H86.4162Z"
        fill="#263238" stroke="#263238" stroke-width="2" stroke-linecap="round" stroke-linejoin="round" />
    <path
        d="M95.909 77.5668C95.7636 77.6333 95.6243 77.6998 95.4789 77.7542C95.3335 77.8086 95.2002 77.869 95.0427 77.9114C94.9397 77.9476 94.8307 77.9779 94.7277 78.0141C94.6308 78.0383 94.552 78.0564 94.4672 78.0746C94.3218 78.1169 94.1704 78.1411 94.025 78.1652C93.8675 78.2015 93.71 78.2136 93.5464 78.2257C93.3889 78.2438 93.2314 78.2499 93.0678 78.2559C92.9224 78.2619 92.7589 78.2559 92.5953 78.2559C92.4378 78.2559 92.2803 78.2378 92.1228 78.2257C92.1289 78.2257 92.141 78.2257 92.1531 78.2136C89.7723 77.996 87.5127 76.6239 86.0952 74.4962C86.0467 74.4176 85.9862 74.339 85.9438 74.2544C85.9438 74.2483 85.9256 74.2362 85.9195 74.2242C85.8468 74.1033 85.762 73.9703 85.6833 73.8373C85.5924 73.6681 85.5076 73.4988 85.4228 73.3235C85.3622 73.1905 85.3016 73.0515 85.241 72.9125C85.1986 72.8037 85.1502 72.6888 85.1017 72.58C84.9745 72.2536 84.8594 71.9091 84.7746 71.5706C84.7382 71.4316 84.6958 71.2804 84.6716 71.1354C84.6534 71.0628 84.6352 71.0024 84.6352 70.9419C84.5928 70.7969 84.5807 70.6699 84.5565 70.537C84.5444 70.41 84.5201 70.2891 84.5141 70.1682C84.4899 70.0111 84.4777 69.86 84.4656 69.6968C84.4535 69.6545 84.4596 69.6 84.4535 69.5577C84.4535 69.4973 84.4535 69.4429 84.4535 69.3824C84.4535 69.3764 84.4535 69.3583 84.4535 69.3522C84.4414 69.1286 84.4535 68.917 84.4535 68.6873C84.4535 68.4637 84.4838 68.2521 84.4959 68.0285C84.5141 67.835 84.5383 67.6476 84.5686 67.4603L84.6171 67.1459C84.6292 67.0976 84.6413 67.0492 84.6474 67.0009C84.6777 66.8739 84.7019 66.747 84.7322 66.6261C84.7322 66.6261 84.7322 66.6221 84.7322 66.614C84.7746 66.4448 84.823 66.2755 84.8715 66.1063L84.8836 66.0881C84.9079 66.0217 84.926 65.9491 84.9442 65.8826C84.9624 65.8101 84.9927 65.7376 85.0229 65.665C85.0411 65.6348 85.0532 65.6106 85.0593 65.5744C85.1199 65.4232 85.1805 65.2842 85.235 65.1271C85.2471 65.1089 85.2531 65.0847 85.2592 65.0666L85.2774 65.0303C85.3198 64.9336 85.3561 64.8369 85.4107 64.7402C85.4107 64.7402 85.4107 64.7342 85.4167 64.7281C85.4712 64.6012 85.5379 64.4742 85.6045 64.3533C85.6772 64.2204 85.7499 64.0995 85.8347 63.9725C85.8892 63.8819 85.9438 63.7912 86.0043 63.7066C86.1134 63.5373 86.2466 63.3681 86.3739 63.1988C86.4587 63.0961 86.5435 62.9933 86.6283 62.8906C86.6828 62.8301 86.7434 62.7697 86.804 62.7092C86.913 62.5944 87.0221 62.4674 87.1493 62.3465C87.2704 62.2377 87.3976 62.1229 87.5249 62.008C87.6157 61.9416 87.6945 61.863 87.7853 61.7965C87.8278 61.7663 87.8641 61.736 87.9065 61.7058C87.9974 61.6454 88.0822 61.5789 88.173 61.5124C88.1852 61.5063 88.1973 61.4943 88.2094 61.4882C88.2336 61.4701 88.2639 61.458 88.2942 61.4338C88.3184 61.4157 88.3427 61.4036 88.3669 61.3855C88.4214 61.3492 88.4759 61.319 88.5365 61.2827C88.6456 61.2102 88.7546 61.1437 88.8697 61.0893C89.0878 60.9684 89.2998 60.8596 89.5361 60.7629C89.5421 60.7629 89.5543 60.7508 89.5724 60.7508C89.5906 60.7387 89.6088 60.7326 89.6391 60.7266C89.6694 60.7024 89.7057 60.6903 89.7481 60.6782C89.8087 60.6541 89.8814 60.6299 89.942 60.6057C89.9965 60.5936 90.0449 60.5694 90.1055 60.5573C90.1298 60.5573 90.1479 60.5453 90.1722 60.5332C90.2994 60.4969 90.4084 60.4606 90.5296 60.4425C90.6144 60.4123 90.6992 60.3941 90.7901 60.3821C90.9112 60.3518 91.0263 60.3337 91.1535 60.3216C91.1596 60.3216 91.1657 60.3216 91.1717 60.3216C91.1717 60.3216 91.1778 60.3176 91.1899 60.3095C91.1899 60.3095 91.2081 60.3095 91.2141 60.3035C91.2626 60.3035 91.311 60.2914 91.3656 60.2914C91.4383 60.2914 91.4988 60.2853 91.5776 60.2793C91.5958 60.2793 91.6139 60.2793 91.6321 60.2793C91.6321 60.2793 91.6341 60.2793 91.6382 60.2793C91.6382 60.2793 91.6624 60.2793 91.6745 60.2793C91.6745 60.2793 91.6786 60.2793 91.6866 60.2793C91.723 60.2793 91.7593 60.2793 91.7957 60.2793C91.9168 60.2793 92.0198 60.2793 92.1289 60.2853C92.2803 60.2853 92.4136 60.2853 92.5529 60.2974C92.5832 60.2974 92.6014 60.2974 92.6377 60.3095C92.6922 60.3095 92.7468 60.3156 92.7952 60.3216C92.8255 60.3216 92.8558 60.3216 92.8861 60.3216C92.9103 60.3277 92.9346 60.3216 92.9648 60.3337C92.9951 60.3337 93.0254 60.3337 93.0497 60.3458C93.0678 60.3458 93.0981 60.3579 93.1284 60.3518C93.1769 60.3639 93.2072 60.37 93.2556 60.376C93.2738 60.376 93.298 60.376 93.3162 60.3881C93.5646 60.4304 93.8008 60.4788 94.0371 60.5453C94.0553 60.5453 94.0674 60.5573 94.0856 60.5573C94.4006 60.642 94.7035 60.7447 95.0063 60.8777C95.0488 60.8958 95.1154 60.9261 95.1699 60.9502C95.2487 60.9805 95.3395 61.0228 95.4365 61.0711C95.4728 61.0953 95.5092 61.1074 95.5455 61.1255C95.6 61.1558 95.6667 61.186 95.7272 61.2283C95.7454 61.2283 95.7636 61.2404 95.7818 61.2525C95.9332 61.3371 96.0847 61.4217 96.23 61.5184L96.2785 61.5426C96.2785 61.5426 96.333 61.5789 96.3633 61.597L96.3876 61.6091C96.4663 61.6575 96.539 61.7179 96.6178 61.7663C96.6359 61.7844 96.6662 61.8025 96.6965 61.8267C96.7389 61.8569 96.7934 61.8932 96.8419 61.9416C96.8904 61.9778 96.9388 62.0081 96.9873 62.0564C97.0357 62.0987 97.0903 62.135 97.1387 62.1773C97.1751 62.2075 97.2114 62.2317 97.2478 62.268C97.2538 62.2801 97.2599 62.2861 97.272 62.2921C97.2781 62.3042 97.2902 62.3103 97.3084 62.3284C97.3386 62.3526 97.3689 62.3828 97.4053 62.413C97.4235 62.4312 97.4477 62.4493 97.4719 62.4735C97.4901 62.4916 97.5143 62.5158 97.5386 62.5339C97.6597 62.6488 97.7809 62.7697 97.896 62.8906C97.9323 62.9268 97.9808 62.9691 98.0111 63.0054C98.0595 63.0538 98.1019 63.1082 98.1383 63.1505C98.1868 63.2109 98.2292 63.2532 98.2716 63.3076C98.3806 63.4346 98.4896 63.5615 98.5805 63.7005C98.6774 63.8335 98.7804 63.9786 98.8774 64.1055C98.8834 64.1176 98.8895 64.1237 98.8955 64.1357C98.9803 64.2808 99.0773 64.4198 99.156 64.5589C99.2469 64.7039 99.3317 64.8611 99.4104 65.0122C99.4831 65.1633 99.5619 65.3205 99.6346 65.4716C99.6346 65.4716 99.6346 65.4716 99.6406 65.4837C99.683 65.5562 99.7133 65.6348 99.7436 65.7255C99.78 65.8041 99.8103 65.8887 99.8406 65.9673C99.9617 66.2876 100.071 66.6201 100.156 66.9586C100.204 67.1278 100.246 67.3031 100.289 67.4724C100.319 67.6416 100.349 67.8169 100.38 67.9922C100.422 68.2642 100.446 68.5422 100.465 68.8143C100.477 69.0863 100.483 69.3643 100.477 69.6424C100.477 70.0534 100.446 70.4705 100.392 70.8755C100.343 71.2865 100.265 71.6975 100.168 72.0904C100.131 72.2234 100.095 72.3503 100.053 72.4833C99.9738 72.7432 99.883 72.9971 99.786 73.251C99.0591 75.0885 97.7627 76.6601 95.8787 77.5789L95.909 77.5668Z"
        fill="#B5846B" />
    <path
        d="M89.5542 60.7507C92.8194 61.0952 95.4364 63.4344 96.5935 66.3661C96.854 67.031 97.0357 67.714 97.1387 68.4152C97.6778 72.1689 96.2058 76.2611 92.6437 78.0019C92.468 78.0865 92.2984 78.147 92.1288 78.2195C92.2863 78.2316 92.4438 78.2437 92.6013 78.2497C92.7649 78.2558 92.9224 78.2558 93.0738 78.2497C93.2374 78.2437 93.3949 78.2316 93.5524 78.2195C93.7099 78.2014 93.8735 78.1893 94.031 78.1591C94.1764 78.1349 94.3218 78.1047 94.4732 78.0684C94.558 78.0563 94.6368 78.0321 94.7276 78.0079C94.8367 77.9777 94.9397 77.9475 95.0487 77.9112C95.1941 77.8629 95.3395 77.8085 95.4849 77.7541C95.6303 77.6997 95.7696 77.6332 95.915 77.5667C97.805 76.6479 99.0954 75.0763 99.8223 73.2388C99.9193 72.9849 100.01 72.731 100.089 72.4711C100.131 72.3381 100.168 72.2112 100.198 72.0722C100.301 71.6793 100.38 71.2743 100.428 70.8632C100.483 70.4462 100.507 70.0351 100.513 69.6302C100.513 69.3521 100.513 69.074 100.495 68.802C100.477 68.53 100.452 68.252 100.41 67.98C100.386 67.8107 100.355 67.6354 100.319 67.4601C100.283 67.2909 100.24 67.1156 100.192 66.9464C100.107 66.6079 99.998 66.2754 99.8708 65.955V65.949C99.8102 65.7918 99.7436 65.6286 99.6709 65.4775C99.6709 65.4715 99.6648 65.4654 99.6648 65.4654C99.5921 65.3143 99.5134 65.1572 99.4407 65C99.3619 64.8489 99.2771 64.6978 99.1923 64.5527C99.1136 64.4197 99.0166 64.2746 98.9318 64.1356C98.9318 64.1356 98.9197 64.1114 98.9136 64.0994C98.8167 63.9664 98.7137 63.8213 98.6168 63.6944C98.5259 63.5614 98.4169 63.4344 98.3079 63.3015C98.2655 63.2471 98.217 63.1987 98.1746 63.1443C98.1322 63.096 98.0958 63.0476 98.0474 62.9992C98.011 62.9569 97.9747 62.9207 97.9323 62.8844C97.8656 62.8058 97.7869 62.7333 97.7081 62.6547C97.6657 62.6063 97.6233 62.5701 97.5749 62.5278C97.5567 62.5096 97.5324 62.4854 97.5022 62.4673C97.484 62.4492 97.4658 62.431 97.4416 62.4129C97.3568 62.3343 97.272 62.2558 97.1811 62.1832C97.0842 62.1046 96.9872 62.02 96.8782 61.9475C96.8358 61.9052 96.7813 61.8689 96.7328 61.8326C96.6359 61.7661 96.5329 61.6936 96.4299 61.6211L96.4057 61.609C96.4057 61.609 96.3451 61.5667 96.3148 61.5546L96.2724 61.5304C96.1331 61.4337 95.9756 61.3491 95.8241 61.2644C95.8059 61.2524 95.7817 61.2403 95.7635 61.2403C95.6666 61.1798 95.5697 61.1315 95.4728 61.0831C95.3819 61.0347 95.2971 60.9924 95.2062 60.9622C95.1517 60.938 95.0911 60.9139 95.0427 60.8897C94.7458 60.7627 94.4429 60.66 94.1279 60.5693C94.1097 60.5693 94.0976 60.5572 94.0734 60.5572C93.8371 60.4907 93.5948 60.4424 93.3525 60.4001C93.3343 60.388 93.3101 60.394 93.2919 60.388C93.2435 60.3759 93.2071 60.3698 93.1647 60.3638C93.1284 60.3638 93.092 60.3517 93.0617 60.3638C93.0435 60.3517 93.0254 60.3517 93.0011 60.3517C92.8921 60.3336 92.7831 60.3275 92.674 60.3154C92.6437 60.3154 92.6256 60.3154 92.5953 60.3094C92.4559 60.2973 92.3166 60.2852 92.1712 60.2913C92.0622 60.2913 91.9531 60.2913 91.838 60.2913C91.8077 60.2913 91.7896 60.2913 91.7593 60.2913C91.7229 60.2913 91.6926 60.2852 91.6624 60.2913C91.6442 60.2913 91.626 60.2913 91.6018 60.2913C91.4867 60.2973 91.3595 60.3034 91.2504 60.3154C91.2262 60.3215 91.202 60.3275 91.1777 60.3275C91.0566 60.3396 90.9415 60.3578 90.8203 60.388C90.7294 60.4001 90.6446 60.4182 90.5538 60.4424C90.4326 60.4666 90.3175 60.4968 90.2024 60.5391C90.1782 60.5451 90.1539 60.5572 90.1297 60.5572C90.0752 60.5693 90.0267 60.5935 89.9722 60.6116C89.9056 60.6358 89.8389 60.66 89.7783 60.6842C89.7359 60.6962 89.6935 60.7144 89.6632 60.7325C89.6269 60.7446 89.5966 60.7567 89.5663 60.7688L89.5542 60.7507Z"
        fill="white" />
    <path
        d="M95.909 77.5668C95.7636 77.6333 95.6243 77.6998 95.4789 77.7542C95.3335 77.8086 95.2002 77.869 95.0427 77.9114C94.9397 77.9476 94.8307 77.9779 94.7277 78.0141C94.6308 78.0383 94.552 78.0564 94.4672 78.0746C94.3218 78.1169 94.1704 78.1411 94.025 78.1652C93.8675 78.2015 93.71 78.2136 93.5464 78.2257C93.3889 78.2438 93.2314 78.2499 93.0678 78.2559C92.9224 78.2619 92.7589 78.2559 92.5953 78.2559C92.4378 78.2559 92.2803 78.2378 92.1228 78.2257C92.1289 78.2257 92.141 78.2257 92.1531 78.2136C89.7723 77.996 87.5127 76.6239 86.0952 74.4962C86.0467 74.4176 85.9862 74.339 85.9438 74.2544C85.9438 74.2483 85.9256 74.2362 85.9195 74.2242C85.8468 74.1033 85.762 73.9703 85.6833 73.8373C85.5924 73.6681 85.5076 73.4988 85.4228 73.3235C85.3622 73.1905 85.3016 73.0515 85.241 72.9125C85.1986 72.8037 85.1502 72.6888 85.1017 72.58C84.9745 72.2536 84.8594 71.9091 84.7746 71.5706C84.7382 71.4316 84.6958 71.2804 84.6716 71.1354C84.6534 71.0628 84.6352 71.0024 84.6352 70.9419C84.5928 70.7969 84.5807 70.6699 84.5565 70.537C84.5444 70.41 84.5201 70.2891 84.5141 70.1682C84.4899 70.0111 84.4777 69.86 84.4656 69.6968C84.4535 69.6545 84.4596 69.6 84.4535 69.5577C84.4535 69.4973 84.4535 69.4429 84.4535 69.3824C84.4535 69.3764 84.4535 69.3583 84.4535 69.3522C84.4414 69.1286 84.4535 68.917 84.4535 68.6873C84.4535 68.4637 84.4838 68.2521 84.4959 68.0285C84.5141 67.835 84.5383 67.6476 84.5686 67.4603L84.6171 67.1459C84.6292 67.0976 84.6413 67.0492 84.6474 67.0009C84.6777 66.8739 84.7019 66.747 84.7322 66.6261C84.7322 66.6261 84.7322 66.6221 84.7322 66.614C84.7746 66.4448 84.823 66.2755 84.8715 66.1063C84.8957 66.0337 84.92 65.9612 84.9442 65.8826C84.9624 65.8101 84.9927 65.7376 85.0229 65.665C85.0411 65.6348 85.0532 65.6106 85.0593 65.5744C85.1199 65.4232 85.1805 65.2842 85.235 65.1271C85.2471 65.1089 85.2531 65.0847 85.2592 65.0666L85.2774 65.0303C85.3198 64.9336 85.3561 64.8369 85.4107 64.7402C85.4107 64.7402 85.4107 64.7342 85.4167 64.7281C85.4349 64.6798 85.4591 64.6254 85.4894 64.571C85.5197 64.4984 85.5621 64.4259 85.6045 64.3533C85.6287 64.311 85.6469 64.2748 85.6772 64.2385C85.7257 64.1478 85.7741 64.0632 85.8347 63.9725C85.8892 63.8819 85.9438 63.7912 86.0043 63.7066C86.1134 63.5373 86.2466 63.3681 86.3739 63.1988C86.4587 63.0961 86.5435 62.9933 86.6283 62.8906C86.6828 62.8301 86.7434 62.7697 86.804 62.7092C86.913 62.5944 87.0221 62.4674 87.1493 62.3465C87.2704 62.2377 87.3976 62.1229 87.5249 62.008C87.6157 61.9416 87.6945 61.863 87.7853 61.7965C87.8278 61.7663 87.8641 61.736 87.9065 61.7058C87.9974 61.6454 88.0822 61.5789 88.173 61.5124C88.1852 61.5063 88.1973 61.4943 88.2094 61.4882C88.2336 61.4701 88.2639 61.458 88.2942 61.4338C88.3063 61.4278 88.3245 61.4096 88.3366 61.3975C88.3427 61.3975 88.3548 61.3855 88.3669 61.3855C88.4214 61.3492 88.4759 61.319 88.5365 61.2827C88.6456 61.2102 88.7546 61.1437 88.8697 61.0893C89.0878 60.9684 89.2998 60.8596 89.5361 60.7629C89.5361 60.7629 89.5543 60.7568 89.5664 60.7508C89.5845 60.7387 89.6027 60.7326 89.633 60.7266C89.6633 60.7024 89.6996 60.6903 89.7421 60.6782C89.8026 60.6541 89.8753 60.6299 89.9359 60.6057C89.9904 60.5936 90.0389 60.5694 90.0995 60.5573C90.1237 60.5573 90.1419 60.5453 90.1661 60.5332C90.2933 60.4969 90.4024 60.4606 90.5235 60.4425C90.6083 60.4123 90.6931 60.3941 90.784 60.3821C90.9052 60.3518 91.0203 60.3337 91.1475 60.3216C91.1535 60.3216 91.1596 60.3216 91.1656 60.3216C91.2262 60.3095 91.2929 60.2974 91.3656 60.2914C91.4383 60.2914 91.4988 60.2853 91.5776 60.2793C91.5958 60.2793 91.6139 60.2793 91.6321 60.2793C91.6321 60.2793 91.6341 60.2793 91.6382 60.2793C91.6382 60.2793 91.6624 60.2793 91.6745 60.2793C91.6866 60.2793 91.7109 60.2793 91.729 60.2853C91.7533 60.2793 91.7775 60.2853 91.8017 60.2853C91.9229 60.2853 92.0259 60.2853 92.1349 60.2914C92.2864 60.2914 92.4196 60.2914 92.559 60.3035C92.5893 60.3035 92.6074 60.3035 92.6438 60.3156C92.6983 60.3156 92.7528 60.3216 92.8013 60.3277C92.8316 60.3277 92.8619 60.3277 92.8922 60.3277C92.9164 60.3337 92.9406 60.3277 92.9709 60.3397C92.9951 60.3397 93.0194 60.3397 93.0375 60.3518C93.1102 60.3518 93.195 60.37 93.2617 60.3821C93.2799 60.3821 93.3041 60.3821 93.3223 60.3941C93.4858 60.4123 93.6494 60.4425 93.8008 60.4848C93.8856 60.509 93.9644 60.5271 94.0492 60.5573C94.0674 60.5573 94.0795 60.5694 94.0977 60.5694C94.4127 60.6541 94.7156 60.7568 95.0185 60.8898C95.0609 60.9079 95.1275 60.9382 95.182 60.9623C95.2305 60.9805 95.2911 61.0107 95.3395 61.0288C95.3759 61.047 95.4122 61.059 95.4486 61.0832C95.4849 61.1074 95.5213 61.1195 95.5576 61.1376C95.594 61.1558 95.6303 61.1679 95.6606 61.186C95.7091 61.2041 95.7575 61.2343 95.7999 61.2585C95.9514 61.3431 96.0968 61.4278 96.2422 61.5305L96.2906 61.5547C96.2906 61.5547 96.3451 61.591 96.3754 61.6091L96.3997 61.6212C96.4602 61.6635 96.5208 61.7058 96.5814 61.7481C96.5996 61.7602 96.6056 61.7723 96.6238 61.7784C96.642 61.7965 96.6723 61.8146 96.7026 61.8388C96.745 61.869 96.7995 61.9053 96.848 61.9536C96.8964 61.9899 96.9449 62.0201 96.9933 62.0685C97.0418 62.1048 97.0842 62.141 97.1387 62.1833C97.1751 62.2196 97.2114 62.2559 97.2478 62.2801C97.2538 62.2921 97.2599 62.2982 97.272 62.3042C97.2781 62.3163 97.2962 62.3284 97.3084 62.3405C97.3386 62.3647 97.3689 62.3949 97.4053 62.4251C97.4235 62.4433 97.4477 62.4614 97.4719 62.4856C97.4901 62.5037 97.5143 62.5279 97.5386 62.546C97.581 62.5883 97.6294 62.6246 97.6718 62.673C97.7445 62.7515 97.8233 62.8241 97.896 62.9027C97.9323 62.9389 97.9808 62.9812 98.0111 63.0175C98.0595 63.0659 98.1019 63.1203 98.1383 63.1626C98.1868 63.223 98.2292 63.2653 98.2716 63.3197C98.3806 63.4467 98.4896 63.5736 98.5805 63.7126C98.6774 63.8456 98.7804 63.9907 98.8774 64.1176C98.8834 64.1297 98.8895 64.1357 98.8955 64.1478C98.9803 64.2929 99.0773 64.4319 99.156 64.571C99.2469 64.716 99.3317 64.8732 99.4104 65.0243C99.4831 65.1754 99.5619 65.3326 99.6346 65.4837C99.6346 65.4837 99.6346 65.4837 99.6406 65.4958C99.683 65.5683 99.7133 65.6469 99.7436 65.7376C99.78 65.8161 99.8103 65.8947 99.8466 65.9733V65.9793C99.9678 66.2937 100.077 66.6261 100.162 66.9707C100.21 67.1399 100.252 67.3152 100.295 67.4844C100.325 67.6537 100.355 67.829 100.386 68.0043C100.428 68.2763 100.452 68.5543 100.471 68.8263C100.483 69.0983 100.489 69.3764 100.483 69.6545C100.483 70.0655 100.452 70.4826 100.398 70.8875C100.349 71.2986 100.271 71.7096 100.174 72.1025C100.137 72.2355 100.101 72.3624 100.059 72.4954C99.9799 72.7553 99.889 73.0092 99.7921 73.2631C99.0651 75.1006 97.7688 76.6722 95.8848 77.591L95.909 77.5668Z"
        stroke="#263238" stroke-width="2" stroke-linecap="round" stroke-linejoin="round" />
    <path
        d="M98.9137 64.1296C98.9137 64.1296 98.8713 64.1538 98.8531 64.1538C98.1928 64.9698 97.4355 65.7072 96.5996 66.3661C94.3097 68.1674 91.4322 69.3219 88.2276 69.5395C87.0523 69.6181 85.9074 69.5516 84.7746 69.3823C84.6716 69.3823 84.5686 69.3823 84.4595 69.3702C84.4595 69.3642 84.4595 69.3461 84.4595 69.34C84.4474 69.1164 84.4595 68.9048 84.4595 68.6751C84.4595 68.4515 84.4898 68.2399 84.5019 68.0163C84.5201 67.8228 84.5444 67.6354 84.5746 67.4481L84.6231 67.1337C84.6352 67.0854 84.6473 67.037 84.6534 66.9887C84.6837 66.8617 84.7079 66.7348 84.7382 66.6139C84.7382 66.6139 84.7382 66.6099 84.7382 66.6018C84.7806 66.4326 84.8291 66.2633 84.8775 66.0941C84.9018 66.0215 84.926 65.949 84.9502 65.8704C84.9684 65.7979 84.9987 65.7253 85.029 65.6528C85.0472 65.6226 85.0593 65.5984 85.0653 65.5621C85.1259 65.411 85.1865 65.272 85.241 65.1148C85.2531 65.0967 85.2592 65.0725 85.2652 65.0544L85.2834 65.0181C85.3258 64.9214 85.3622 64.8247 85.4167 64.728C85.4167 64.728 85.4167 64.722 85.4227 64.7159C85.4409 64.6675 85.4652 64.6131 85.4954 64.5587C85.5257 64.4862 85.5681 64.4137 85.6105 64.3411C85.6832 64.2082 85.7559 64.0873 85.8407 63.9603C85.8953 63.8697 85.9498 63.779 86.0104 63.6944C86.1194 63.5251 86.2527 63.3559 86.3799 63.1866C86.4647 63.0839 86.5495 62.9811 86.6343 62.8784C86.6888 62.8179 86.7494 62.7575 86.81 62.697C86.919 62.5822 87.0281 62.4552 87.1553 62.3343C87.2765 62.2255 87.4037 62.1107 87.5309 61.9958C87.6218 61.9294 87.7005 61.8508 87.7914 61.7843C87.8338 61.7541 87.8701 61.7238 87.9125 61.6936C88.0034 61.6332 88.0882 61.5667 88.1791 61.5002C88.1912 61.4941 88.2033 61.4821 88.2154 61.476C88.2397 61.4579 88.27 61.4458 88.3002 61.4216C88.3124 61.4156 88.3305 61.3974 88.3426 61.3853C88.3487 61.3853 88.3608 61.3732 88.3729 61.3732C88.4275 61.337 88.482 61.3068 88.5426 61.2705C88.6516 61.198 88.7606 61.1315 88.8757 61.0771C89.0938 60.9562 89.3059 60.8474 89.5421 60.7507C89.5421 60.7507 89.5603 60.7446 89.5724 60.7386C89.5906 60.7265 89.6088 60.7204 89.639 60.7144C89.6693 60.6902 89.7057 60.6781 89.7481 60.666C89.8087 60.6419 89.8814 60.6177 89.9419 60.5935C89.9965 60.5814 90.0449 60.5572 90.1055 60.5451C90.1297 60.5451 90.1479 60.5331 90.1721 60.521C90.2994 60.4847 90.4084 60.4484 90.5295 60.4303C90.6144 60.4001 90.6992 60.3819 90.79 60.3698C90.9112 60.3396 91.0263 60.3215 91.1535 60.3094C91.1596 60.3094 91.1656 60.3094 91.1717 60.3094C91.2323 60.2973 91.2989 60.2852 91.3716 60.2792C91.4443 60.2792 91.5049 60.2731 91.5836 60.2671C91.6018 60.2671 91.62 60.2671 91.6381 60.2671C91.6381 60.2671 91.6402 60.2671 91.6442 60.2671C91.6442 60.2671 91.6684 60.2671 91.6806 60.2671C91.6927 60.2671 91.7169 60.2671 91.7351 60.2731C91.7593 60.2671 91.7835 60.2731 91.8078 60.2731C91.9289 60.2731 92.0319 60.2731 92.1409 60.2792C92.2924 60.2792 92.4257 60.2792 92.565 60.2913C92.5953 60.2913 92.6135 60.2913 92.6498 60.3034C92.7043 60.3034 92.7589 60.3094 92.8073 60.3154C92.8376 60.3154 92.8679 60.3154 92.8982 60.3154C92.9224 60.3215 92.9467 60.3154 92.9769 60.3275C93.0012 60.3275 93.0254 60.3275 93.0436 60.3396C93.1163 60.3396 93.2011 60.3578 93.2677 60.3698C93.2859 60.3698 93.3101 60.3698 93.3283 60.3819C93.4919 60.4001 93.6554 60.4303 93.8069 60.4726C93.8917 60.4968 93.9704 60.5149 94.0552 60.5451C94.0734 60.5451 94.0855 60.5572 94.1037 60.5572C94.4187 60.6419 94.7216 60.7446 95.0245 60.8776C95.0669 60.8957 95.1335 60.9259 95.1881 60.9501C95.2365 60.9683 95.2971 60.9985 95.3456 61.0166C95.3819 61.0348 95.4183 61.0468 95.4546 61.071C95.491 61.0952 95.5273 61.1073 95.5637 61.1254C95.6 61.1436 95.6364 61.1556 95.6666 61.1738C95.6969 61.1919 95.7151 61.204 95.7515 61.2282L95.7999 61.2584V61.2463C95.9574 61.3309 96.1028 61.4156 96.2482 61.5183L96.2967 61.5425C96.2967 61.5425 96.3512 61.5788 96.3815 61.5969L96.4057 61.609C96.4663 61.6513 96.5269 61.6936 96.5874 61.7359C96.6056 61.748 96.6117 61.7601 96.6298 61.7661C96.648 61.7843 96.6783 61.8024 96.7086 61.8266C96.751 61.8568 96.8055 61.8931 96.854 61.9414C96.9025 61.9777 96.9509 62.0079 96.9994 62.0563C97.0478 62.0926 97.0903 62.1288 97.1448 62.1711C97.1811 62.2074 97.2175 62.2437 97.2538 62.2678C97.2599 62.2799 97.2659 62.286 97.278 62.292C97.2841 62.3041 97.3023 62.3162 97.3144 62.3283C97.3447 62.3525 97.375 62.3827 97.4113 62.4129C97.4295 62.431 97.4537 62.4492 97.4779 62.4734C97.4961 62.4915 97.5204 62.5157 97.5446 62.5338C97.587 62.5761 97.6355 62.6124 97.6779 62.6607C97.7506 62.7393 97.8293 62.8119 97.902 62.8904C97.9384 62.9267 97.9868 62.969 98.0171 63.0053C98.0656 63.0536 98.108 63.108 98.1443 63.1504C98.1928 63.2108 98.2352 63.2531 98.2776 63.3075C98.3866 63.4345 98.4957 63.5614 98.5865 63.7004C98.6835 63.8334 98.7865 63.9785 98.8834 64.1054C98.8894 64.1175 98.8955 64.1235 98.9016 64.1356L98.9137 64.1296Z"
        fill="#263238" stroke="#263238" stroke-width="2" stroke-linecap="round" stroke-linejoin="round" />
    <path d="M113.289 117.274C116.857 113.81 119.08 115.104 119.08 115.104" stroke="#263238" stroke-width="2"
        stroke-linecap="round" stroke-linejoin="round" />
    <path d="M47.4822 96.3413C49.6024 95.2049 61.6274 85.7754 60.6157 81.2903" stroke="#263238" stroke-width="2"
        stroke-linecap="round" stroke-linejoin="round" />
    <path
        d="M81.37 59.161L80.8854 59.4269C80.3281 58.8708 80.8127 57.6982 79.5284 57.2509C78.123 56.7552 77.7837 57.6136 77.7232 57.0272C77.5657 55.5523 76.972 54.9781 76.7176 54.8028C75.9724 54.2769 74.7851 53.7087 71.0474 56.2052C70.5143 56.5618 38.674 76.7749 38.674 76.7749C35.8328 80.0511 37.6563 82.9525 38.674 84.8807C41.394 87.8425 46.0343 90.5868 50.8867 90.5868C50.8867 90.5868 75.191 72.6706 76.7418 71.9694C78.2926 71.2683 84.2657 67.303 84.1142 66.2452C83.9204 64.8973 79.9767 64.9215 79.9767 64.9215L82.8966 62.5097C89.0151 62.6547 87.3067 60.3155 84.1688 59.0219C83.2601 58.6472 82.2242 58.6955 81.364 59.167L81.37 59.161Z"
        fill="#B5846B" stroke="#263238" stroke-width="2" stroke-linecap="round" stroke-linejoin="round" />
    <path
        d="M80.8854 59.155C80.8854 59.155 79.9827 63.6582 78.2562 64.1116C74.9547 64.9699 75.6695 61.4338 75.6695 61.4338"
        fill="#B5846B" />
    <path
        d="M80.8854 59.155C80.8854 59.155 79.9827 63.6582 78.2562 64.1116C74.9547 64.9699 75.6695 61.4338 75.6695 61.4338"
        stroke="#263238" stroke-width="2" stroke-linecap="round" stroke-linejoin="round" />
    <path
        d="M77.7292 57.0273C77.7292 57.0273 77.0508 63.0054 74.5186 62.7576C71.6592 62.4735 73.416 57.9038 73.416 57.9038"
        fill="#B5846B" />
    <path
        d="M77.7292 57.0273C77.7292 57.0273 77.0508 63.0054 74.5186 62.7576C71.6592 62.4735 73.416 57.9038 73.416 57.9038"
        stroke="#263238" stroke-width="2" stroke-linecap="round" stroke-linejoin="round" />
    <path
        d="M74.1127 66.2089C74.1127 66.2089 75.5969 65.2962 76.7479 64.9154C78.5895 64.3049 79.9828 64.9154 79.9828 64.9154"
        fill="#B5846B" />
    <path
        d="M74.1127 66.2089C74.1127 66.2089 75.5969 65.2962 76.7479 64.9154C78.5895 64.3049 79.9828 64.9154 79.9828 64.9154"
        stroke="#263238" stroke-width="2" stroke-linecap="round" stroke-linejoin="round" />
    <path d="M32.8705 80.2142L39.1162 76.5149" stroke="#263238" stroke-width="2" stroke-linecap="round"
        stroke-linejoin="round" />
    <path d="M44.1746 94.8846L50.8928 90.5808" stroke="#263238" stroke-width="2" stroke-linecap="round"
        stroke-linejoin="round" />
    <path
        d="M139.768 128.196L124.878 121.462C121.849 123.403 114.422 131.104 113.289 134.507L130.342 142.564C130.342 142.564 136.563 143.93 143.784 141.476C150.333 139.252 154.283 143.918 156.034 141.113C157.784 138.309 150.806 135.842 150.806 135.842C150.806 135.842 147.97 131.865 154.749 132.077C159.159 132.216 160.698 131.714 160.698 131.714C160.698 131.714 161.165 128.601 155.749 128.202C150.333 127.803 139.774 128.202 139.774 128.202L139.768 128.196Z"
        fill="#B5846B" />
    <path
        d="M155.5 128.432C150.085 128.033 139.768 128.202 139.768 128.202L124.878 121.469C122.188 123.191 116.045 129.441 113.901 133.207C116.651 129.58 121.128 125.174 123.321 123.771L135.746 129.459C135.746 129.459 148.528 130.33 153.944 130.729C156.179 130.892 157.403 131.521 158.081 132.198C159.783 132.089 160.456 131.932 160.456 131.932C160.456 131.932 160.922 128.819 155.506 128.42L155.5 128.432Z"
        fill="white" />
    <path
        d="M139.768 128.196L124.878 121.462C121.849 123.403 114.422 131.104 113.289 134.507C115.736 135.661 118.184 136.822 120.631 137.976C122.479 138.847 124.327 139.723 126.174 140.594C127.465 141.204 128.706 141.923 130.082 142.334C131.469 142.751 132.929 142.927 134.377 142.945C136.624 142.969 138.95 142.721 141.131 142.22C142.028 142.014 142.912 141.766 143.778 141.47C145.82 140.775 149.394 141.313 151.514 141.73C152.95 142.014 154.84 142.884 155.888 141.349C156.27 140.787 156.361 140.037 156.118 139.403C155.906 138.841 155.464 138.399 154.998 138.025C154.362 137.523 152.193 136.399 151.442 136.102C150.527 135.746 149.97 134.634 149.97 133.648C149.964 132.294 153.404 132.065 154.507 132.065C158.917 132.065 160.456 131.702 160.456 131.702C160.456 131.702 160.922 128.589 155.507 128.19C150.091 127.791 139.774 128.19 139.774 128.19L139.768 128.196Z"
        stroke="#263238" stroke-width="2" stroke-linecap="round" stroke-linejoin="round" />
    <path d="M135.394 129.465C136.182 129.115 137.521 128.686 139.768 128.202" stroke="#263238" stroke-width="2"
        stroke-linecap="round" stroke-linejoin="round" />
    <path
        d="M48.3 144.19C48.3 144.19 45.2892 151.552 46.5675 160.764C47.2823 165.933 46.1313 176.91 45.9193 182.295C45.7375 186.925 44.7319 190.915 41.1396 193.998C35.4331 198.888 32.501 206.582 32.0528 213.957C31.9558 215.571 32.1012 217.306 31.762 218.889C31.556 219.85 31.1259 220.787 30.6534 221.688"
        stroke="#263238" stroke-width="2" stroke-linecap="round" stroke-linejoin="round" />
    <path
        d="M84.8351 164.657C84.8351 164.657 81.3458 166.87 80.7037 169.571C80.4674 170.587 79.4255 175.024 79.1226 177.284"
        stroke="#263238" stroke-width="2" stroke-linecap="round" stroke-linejoin="round" />
    <path
        d="M76.1421 193.278C76.1421 193.278 73.0828 205.863 77.2204 217.614C80.1524 225.949 79.2255 225.683 79.5466 231.897C79.5951 232.852 79.6375 233.747 79.6678 234.569"
        stroke="#263238" stroke-width="2" stroke-linecap="round" stroke-linejoin="round" />
    <path
        d="M94.4308 122.412C93.1223 124.08 88.8333 129.097 81.1883 131.122C73.2706 133.213 66.8492 130.741 64.9349 129.919"
        stroke="#263238" stroke-width="2" stroke-linecap="round" stroke-linejoin="round" />
    <path
        d="M93.2253 82.7771C91.8623 84.8383 89.4028 85.7933 87.2038 85.1768C84.5565 84.4333 83.6599 81.7858 83.5933 81.5742"
        stroke="#263238" stroke-width="2" stroke-linecap="round" stroke-linejoin="round" />
</svg>